<svg xmlns="http://www.w3.org/2000/svg" xmlns:xlink="http://www.w3.org/1999/xlink" width="840" height="277.1"><rect width="840" height="277.1" rx="5" ry="5" class="a"/><svg y="0%" x="0%"><circle cx="20" cy="20" r="6" fill="#ff5f58"/><circle cx="40" cy="20" r="6" fill="#ffbd2e"/><circle cx="60" cy="20" r="6" fill="#18c132"/></svg><svg height="217.1" viewBox="0 0 80 21.71" width="800" x="15" xmlns="http://www.w3.org/2000/svg" xmlns:xlink="http://www.w3.org/1999/xlink" y="50"><style>@keyframes i{0%{transform:translateX(0)}38.7%{transform:translateX(-80px)}to{transform:translateX(-160px)}}.a{fill:#282d35}.f{fill:#b9c0cb;white-space:pre}</style><g font-family="Monaco,Consolas,Menlo,'Bitstream Vera Sans Mono','Powerline Symbols',monospace" font-size="1.67"><defs><symbol id="1"><text y="1.67" class="f">Would</text><text x="6.012" y="1.67" class="f">move</text><text x="11.022" y="1.67" class="f">demo_data/a.txt</text><text x="27.054" y="1.67" class="f">-&gt;</text><text x="30.06" y="1.67" class="f">/tmp/out/a.txt</text></symbol><symbol id="a"><path fill="transparent" d="M0 0h80v11H0z"/></symbol><symbol id="b"><path fill="#6f7683" d="M0 0h1.102v2.171H0z"/></symbol></defs><path class="a" d="M0 0h80v21.71H0z"/><g style="animation-duration:.016524s;animation-iteration-count:infinite;animation-name:i;animation-timing-function:steps(1,end)"><svg width="240"><svg><use xlink:href="#a"/><use xlink:href="#b" x="-.004"/></svg><svg x="80"><use xlink:href="#a"/><use xlink:href="#b" x="-.004" y="2.146"/><use xlink:href="#1"/></svg><svg x="160"><use xlink:href="#a"/><use xlink:href="#b" x="-.004" y="4.317"/><use xlink:href="#1"/><text y="3.841" class="f">Would</text><text x="6.012" y="3.841" class="f">move</text><text x="11.022" y="3.841" class="f">demo_data/b.txt</text><text x="27.054" y="3.841" class="f">-&gt;</text><text x="30.06" y="3.841" class="f">/tmp/out/b.txt</text></svg></svg></g></g></svg></svg>
